<svg width="400" height="400" viewBox="0 0 400 400" fill="none" xmlns="http://www.w3.org/2000/svg">
<path d="M257.296 182.384C261.728 172.869 264.017 162.497 264 152C264 143.584 262.56 135.52 259.904 128H356C371.456 128 384 140.544 384 156V188.032L383.872 189.76C382.995 196.225 380.933 202.474 377.792 208.192C355.603 187.467 326.362 175.958 296 176C282.464 176 269.44 178.24 257.296 182.384V182.384ZM182.8 335.92C137.808 333.84 110.48 317.664 104.24 286.352L104 284V252C104 236.544 116.544 224 132 224H200C184.386 244.753 175.961 270.029 176 296C176 310 178.4 323.424 182.8 335.92V335.92ZM124.096 128H28C20.5739 128 13.452 130.95 8.20101 136.201C2.94999 141.452 0 148.574 0 156V188L0.223999 190.352C6.944 223.968 37.984 240.144 89.072 240.144H89.6C92.1912 230.893 97.7377 222.744 105.393 216.94C113.049 211.136 122.393 207.997 132 208H146.752L143.936 205.6C136.397 198.855 130.367 190.594 126.242 181.357C122.117 172.12 119.99 162.116 120 152C120 143.584 121.44 135.52 124.096 128ZM248 152C248 137.148 242.1 122.904 231.598 112.402C221.096 101.9 206.852 96 192 96C177.148 96 162.904 101.9 152.402 112.402C141.9 122.904 136 137.148 136 152C136 166.852 141.9 181.096 152.402 191.598C162.904 202.1 177.148 208 192 208C206.852 208 221.096 202.1 231.598 191.598C242.1 181.096 248 166.852 248 152V152ZM352 56C352 41.1479 346.1 26.9041 335.598 16.402C325.096 5.89998 310.852 0 296 0C281.148 0 266.904 5.89998 256.402 16.402C245.9 26.9041 240 41.1479 240 56C240 70.8521 245.9 85.0959 256.402 95.598C266.904 106.1 281.148 112 296 112C310.852 112 325.096 106.1 335.598 95.598C346.1 85.0959 352 70.8521 352 56V56ZM144 56C144 41.1479 138.1 26.9041 127.598 16.402C117.096 5.89998 102.852 0 88 0C73.1479 0 58.9041 5.89998 48.402 16.402C37.9 26.9041 32 41.1479 32 56C32 70.8521 37.9 85.0959 48.402 95.598C58.9041 106.1 73.1479 112 88 112C102.852 112 117.096 106.1 127.598 95.598C138.1 85.0959 144 70.8521 144 56V56ZM296 400C323.583 400 350.035 389.043 369.539 369.539C389.043 350.035 400 323.583 400 296C400 268.417 389.043 241.965 369.539 222.461C350.035 202.957 323.583 192 296 192C268.417 192 241.965 202.957 222.461 222.461C202.957 241.965 192 268.417 192 296C192 323.583 202.957 350.035 222.461 369.539C241.965 389.043 268.417 400 296 400V400ZM296 224C298.122 224 300.157 224.843 301.657 226.343C303.157 227.843 304 229.878 304 232V288H360C362.122 288 364.157 288.843 365.657 290.343C367.157 291.843 368 293.878 368 296C368 298.122 367.157 300.157 365.657 301.657C364.157 303.157 362.122 304 360 304H304V360C304 362.122 303.157 364.157 301.657 365.657C300.157 367.157 298.122 368 296 368C293.878 368 291.843 367.157 290.343 365.657C288.843 364.157 288 362.122 288 360V304H232C229.878 304 227.843 303.157 226.343 301.657C224.843 300.157 224 298.122 224 296C224 293.878 224.843 291.843 226.343 290.343C227.843 288.843 229.878 288 232 288H288V232C288 229.878 288.843 227.843 290.343 226.343C291.843 224.843 293.878 224 296 224V224Z" fill="white"/>
</svg>
